# xmcd CD database file
#
# Track frame offsets:
#	150
#	16838
#	29088
#	54274
#	68366
#	84185
#	96763
#	111293
#	129395
#	140374
#	164434
#	176751
#
# Disc length: 2577 seconds
#
# Revision: 2
# Processed by: cddbd v1.5.1PL2 Copyright (c) Steve Scherf et al.
# Submitted via: CDex 1.51
#
DISCID=930a0f0c
DTITLE=One Riot One Ranger - Faces Made for Radio
DYEAR=1996
DGENRE=Country
TTITLE0=Alison Town
TTITLE1=Yes Man
TTITLE2=Adios My Amigo
TTITLE3=River of Salvation
TTITLE4=Sweet Maryann
TTITLE5=Tennessee Coot
TTITLE6=The Devil's Waltz
TTITLE7=Cowboy Lullabye
TTITLE8=Drifting Texas Sand
TTITLE9=Blues Stay Away From Me
TTITLE10=Hello City Limits
TTITLE11=Cloud 149
EXTD=YEAR: 1996
EXTT0=
EXTT1=
EXTT2=
EXTT3=
EXTT4=
EXTT5=
EXTT6=
EXTT7=
EXTT8=
EXTT9=
EXTT10=
EXTT11=
PLAYORDER=
